<svg width="220.000000" height="94.000000" viewBox="0 0 220 94" fill="none" xmlns="http://www.w3.org/2000/svg" xmlns:xlink="http://www.w3.org/1999/xlink">
	<desc>
			Created with Pixso.
	</desc>
	<defs>
		<clipPath id="clip23_31932">
			<rect id="Logo" width="78.625000" height="34.000000" transform="translate(70.044922 30.000000)" fill="white" fill-opacity="0"/>
		</clipPath>
		<clipPath id="clip23_31929">
			<rect id="Card" width="219.285721" height="94.000000" transform="translate(-0.285156 0.000000)" fill="white" fill-opacity="0"/>
		</clipPath>
	</defs>
	<g clip-path="url(#clip23_31929)">
		<rect id="Logo" width="78.625000" height="34.000000" transform="translate(70.044922 30.000000)" fill="#FFFFFF" fill-opacity="0"/>
		<g clip-path="url(#clip23_31932)">
			<path id="Vector" d="M80.85 56.96C79.67 57.16 78.47 57.23 77.22 57.39L73.42 46.27L73.42 57.87C72.24 57.99 71.16 58.16 70.04 58.33L70.04 37.08L73.19 37.08L77.51 49.13L77.51 37.08L80.85 37.08L80.85 56.96ZM87.39 44.86C88.68 44.86 90.65 44.8 91.83 44.8L91.83 48.12C90.36 48.12 88.63 48.12 87.39 48.18L87.39 53.12C89.34 52.99 91.29 52.83 93.26 52.76L93.26 55.96L84.07 56.69L84.07 37.08L93.26 37.08L93.26 40.4L87.39 40.4L87.39 44.86ZM105.61 40.4L102.16 40.4L102.16 55.67C101.04 55.67 99.92 55.67 98.84 55.71L98.84 40.4L95.4 40.4L95.4 37.08L105.61 37.08L105.61 40.4ZM111 44.63L115.55 44.63L115.55 47.95L111 47.95L111 55.48L107.75 55.48L107.75 37.08L117.02 37.08L117.02 40.4L111 40.4L111 44.63ZM122.42 52.58C124.31 52.62 126.22 52.77 128.06 52.87L128.06 56.15C125.1 55.96 122.13 55.77 119.1 55.71L119.1 37.08L122.42 37.08L122.42 52.58ZM130.86 56.38C131.92 56.44 133.04 56.5 134.12 56.62L134.12 37.08L130.86 37.08L130.86 56.38ZM148.67 37.08L144.46 47.18L148.67 58.33C147.42 58.16 146.18 57.93 144.93 57.72L142.55 51.58L140.12 57.23C138.92 57.02 137.75 56.96 136.55 56.79L140.83 47.06L136.97 37.08L140.53 37.08L142.71 42.66L145.04 37.08L148.67 37.08L148.67 37.08Z" fill="#4C4C4D" fill-opacity="1.000000" fill-rule="nonzero"/>
		</g>
	</g>
</svg>
