<svg width="219.000000" height="94.000000" viewBox="0 0 219 94" fill="none" xmlns="http://www.w3.org/2000/svg" xmlns:xlink="http://www.w3.org/1999/xlink">
	<desc>
			Created with Pixso.
	</desc>
	<defs>
		<clipPath id="clip23_31881">
			<rect id="Logo" width="99.166687" height="34.000000" transform="translate(59.345703 30.000000)" fill="white" fill-opacity="0"/>
		</clipPath>
		<clipPath id="clip23_31880">
			<rect id="Card" width="219.285721" height="94.000000" transform="translate(-0.713867 0.000000)" fill="white" fill-opacity="0"/>
		</clipPath>
	</defs>
	<g clip-path="url(#clip23_31880)">
		<rect id="Logo" width="99.166687" height="34.000000" transform="translate(59.345703 30.000000)" fill="#FFFFFF" fill-opacity="0"/>
		<g clip-path="url(#clip23_31881)">
			<path id="Vector" d="M74.27 32.18C66.05 32.18 59.39 38.84 59.39 47.05C59.39 55.27 66.05 61.93 74.27 61.93C82.49 61.93 89.14 55.27 89.14 47.05C89.14 38.84 82.49 32.18 74.27 32.18L74.27 32.18ZM81.09 53.63C80.82 54.07 80.25 54.21 79.82 53.94C76.32 51.8 71.93 51.32 66.75 52.5C66.25 52.62 65.75 52.3 65.64 51.81C65.52 51.31 65.83 50.81 66.33 50.7C72 49.4 76.86 49.96 80.78 52.35C81.22 52.62 81.36 53.19 81.09 53.63ZM82.91 49.58C82.58 50.13 81.86 50.3 81.32 49.96C77.32 47.5 71.22 46.79 66.49 48.23C65.88 48.41 65.23 48.07 65.05 47.46C64.86 46.84 65.21 46.2 65.82 46.01C71.22 44.37 77.94 45.16 82.53 47.99C83.07 48.32 83.25 49.04 82.91 49.58L82.91 49.58ZM83.07 45.36C78.27 42.51 70.36 42.25 65.79 43.64C65.05 43.86 64.27 43.45 64.05 42.71C63.83 41.98 64.24 41.2 64.98 40.98C70.23 39.38 78.97 39.69 84.49 42.97C85.15 43.36 85.37 44.22 84.97 44.88C84.58 45.54 83.73 45.75 83.07 45.36L83.07 45.36ZM99.86 45.91C97.3 45.3 96.84 44.87 96.84 43.96C96.84 43.11 97.64 42.53 98.84 42.53C100 42.53 101.14 42.97 102.35 43.87C102.38 43.9 102.43 43.91 102.47 43.9C102.52 43.89 102.56 43.87 102.59 43.83L103.84 42.06C103.89 41.99 103.88 41.89 103.81 41.83C102.37 40.68 100.76 40.13 98.87 40.13C96.1 40.13 94.16 41.79 94.16 44.17C94.16 46.72 95.84 47.63 98.72 48.33C101.18 48.89 101.6 49.37 101.6 50.21C101.6 51.15 100.76 51.74 99.41 51.74C97.91 51.74 96.68 51.23 95.32 50.05C95.28 50.02 95.24 50.01 95.19 50.01C95.15 50.01 95.11 50.03 95.08 50.07L93.67 51.74C93.61 51.81 93.62 51.91 93.69 51.97C95.28 53.4 97.24 54.15 99.35 54.15C102.34 54.15 104.27 52.51 104.27 49.99C104.27 47.85 103 46.67 99.87 45.91L99.86 45.91ZM111.03 43.37C109.74 43.37 108.67 43.88 107.8 44.93L107.8 43.75C107.8 43.66 107.72 43.59 107.63 43.59L105.33 43.59C105.24 43.59 105.16 43.66 105.16 43.75L105.16 56.83C105.16 56.92 105.24 57 105.33 57L107.63 57C107.72 57 107.8 56.92 107.8 56.83L107.8 52.7C108.67 53.68 109.74 54.16 111.03 54.16C113.44 54.16 115.87 52.31 115.87 48.77C115.88 45.23 113.44 43.37 111.03 43.37L111.03 43.37ZM113.2 48.77C113.2 50.57 112.09 51.83 110.5 51.83C108.93 51.83 107.74 50.52 107.74 48.77C107.74 47.02 108.93 45.71 110.5 45.71C112.06 45.71 113.2 47 113.2 48.77L113.2 48.77ZM122.12 43.37C119.02 43.37 116.59 45.76 116.59 48.81C116.59 51.82 119 54.18 122.08 54.18C125.19 54.18 127.63 51.81 127.63 48.77C127.63 45.74 125.21 43.38 122.12 43.38L122.12 43.37ZM122.12 51.85C120.47 51.85 119.23 50.53 119.23 48.77C119.23 47.01 120.43 45.73 122.08 45.73C123.74 45.73 124.99 47.05 124.99 48.81C124.99 50.57 123.78 51.85 122.12 51.85ZM134.24 43.59L131.71 43.59L131.71 41C131.71 40.9 131.64 40.83 131.55 40.83L129.25 40.83C129.15 40.83 129.08 40.9 129.08 41L129.08 43.59L127.97 43.59C127.88 43.59 127.81 43.66 127.81 43.75L127.81 45.73C127.81 45.82 127.88 45.9 127.97 45.9L129.08 45.9L129.08 51.01C129.08 53.08 130.11 54.13 132.14 54.13C132.96 54.13 133.64 53.96 134.29 53.59C134.34 53.56 134.37 53.51 134.37 53.45L134.37 51.56C134.37 51.51 134.34 51.45 134.29 51.42C134.24 51.39 134.18 51.39 134.13 51.41C133.69 51.64 133.26 51.74 132.78 51.74C132.04 51.74 131.71 51.4 131.71 50.65L131.71 45.9L134.24 45.9C134.34 45.9 134.41 45.82 134.41 45.73L134.41 43.75C134.42 43.66 134.34 43.59 134.25 43.59L134.24 43.59ZM143.06 43.6L143.06 43.28C143.06 42.34 143.42 41.93 144.22 41.93C144.7 41.93 145.09 42.02 145.52 42.16C145.57 42.18 145.63 42.17 145.67 42.14C145.72 42.11 145.74 42.06 145.74 42L145.74 40.07C145.74 39.99 145.69 39.93 145.62 39.91C145.17 39.77 144.58 39.63 143.71 39.63C141.59 39.63 140.46 40.83 140.46 43.09L140.46 43.58L139.36 43.58C139.27 43.58 139.19 43.65 139.19 43.74L139.19 45.73C139.19 45.82 139.27 45.9 139.36 45.9L140.46 45.9L140.46 53.79C140.46 53.88 140.54 53.96 140.63 53.96L142.93 53.96C143.02 53.96 143.1 53.88 143.1 53.79L143.1 45.9L145.25 45.9L148.54 53.79C148.16 54.61 147.8 54.78 147.3 54.78C146.89 54.78 146.46 54.66 146.03 54.42C145.99 54.4 145.94 54.39 145.89 54.41C145.85 54.42 145.81 54.45 145.79 54.5L145.02 56.21C144.98 56.29 145.01 56.38 145.09 56.43C145.9 56.87 146.63 57.05 147.54 57.05C149.24 57.05 150.18 56.26 151.01 54.13L155 43.83C155.02 43.77 155.01 43.71 154.98 43.67C154.95 43.62 154.89 43.6 154.84 43.6L152.45 43.6C152.37 43.6 152.31 43.64 152.29 43.71L149.83 50.71L147.15 43.7C147.12 43.64 147.06 43.6 146.99 43.6L143.06 43.6L143.06 43.6ZM137.95 43.59L135.65 43.59C135.56 43.59 135.48 43.66 135.48 43.75L135.48 53.79C135.48 53.88 135.56 53.96 135.65 53.96L137.95 53.96C138.04 53.96 138.12 53.88 138.12 53.79L138.12 43.75C138.12 43.66 138.04 43.59 137.95 43.59L137.95 43.59ZM136.81 39.02C135.9 39.02 135.16 39.75 135.16 40.67C135.16 41.58 135.9 42.32 136.81 42.32C137.72 42.32 138.46 41.58 138.46 40.67C138.46 39.75 137.72 39.02 136.81 39.02ZM156.96 46.81C156.05 46.81 155.34 46.08 155.34 45.19C155.34 44.3 156.06 43.57 156.97 43.57C157.88 43.57 158.59 44.3 158.59 45.18C158.59 46.07 157.87 46.81 156.96 46.81ZM156.97 43.73C156.14 43.73 155.51 44.39 155.51 45.19C155.51 46 156.14 46.65 156.96 46.65C157.79 46.65 158.42 45.99 158.42 45.18C158.42 44.38 157.79 43.73 156.97 43.73ZM157.33 45.35L157.79 45.99L157.4 45.99L156.99 45.4L156.63 45.4L156.63 45.99L156.31 45.99L156.31 44.29L157.07 44.29C157.46 44.29 157.72 44.49 157.72 44.83C157.72 45.11 157.56 45.28 157.33 45.35L157.33 45.35ZM157.05 44.58L156.63 44.58L156.63 45.12L157.05 45.12C157.26 45.12 157.39 45.02 157.39 44.85C157.39 44.68 157.26 44.58 157.05 44.58Z" fill="#4C4C4D" fill-opacity="1.000000" fill-rule="nonzero"/>
		</g>
	</g>
</svg>
