<svg width="220.000000" height="94.000000" viewBox="0 0 220 94" fill="none" xmlns="http://www.w3.org/2000/svg" xmlns:xlink="http://www.w3.org/1999/xlink">
	<desc>
			Created with Pixso.
	</desc>
	<defs>
		<clipPath id="clip23_31878">
			<rect id="Logo" width="68.000000" height="34.000000" transform="translate(75.642578 30.000000)" fill="white" fill-opacity="0"/>
		</clipPath>
		<clipPath id="clip23_31877">
			<rect id="Card" width="219.285721" height="94.000000" fill="white" fill-opacity="0"/>
		</clipPath>
	</defs>
	<g clip-path="url(#clip23_31877)">
		<rect id="Logo" width="68.000000" height="34.000000" transform="translate(75.642578 30.000000)" fill="#FFFFFF" fill-opacity="0"/>
		<g clip-path="url(#clip23_31878)">
			<path id="Vector" d="M118.56 34.36L121.06 34.36C121.1 34.59 121.12 34.83 121.13 35.06L121.13 35.07C121.13 35.32 121.1 35.56 121.07 35.79L118.56 35.79L120.34 37.56C120.2 37.76 120.05 37.94 119.87 38.11C119.7 38.28 119.52 38.43 119.32 38.57L117.55 36.8L117.55 39.3C117.32 39.34 117.08 39.36 116.84 39.36L116.83 39.36C116.58 39.36 116.34 39.34 116.11 39.3L116.11 36.8L114.34 38.57C113.94 38.29 113.6 37.95 113.33 37.56L115.1 35.79L112.6 35.79C112.56 35.56 112.54 35.32 112.54 35.07C112.54 34.83 112.6 34.36 112.6 34.36L115.1 34.36L113.32 32.58C113.46 32.38 113.61 32.2 113.78 32.03C113.95 31.87 114.14 31.71 114.33 31.57L116.1 33.34L116.1 30.84C116.34 30.8 116.57 30.78 116.82 30.78L116.83 30.78C117.07 30.78 117.31 30.8 117.54 30.84L117.54 33.34L119.32 31.57C119.52 31.71 119.7 31.86 119.87 32.03C120.03 32.2 120.19 32.39 120.33 32.58L118.56 34.36ZM117.74 35.99C117.84 35.71 117.9 35.4 117.9 35.08C117.9 34.75 117.84 34.45 117.74 34.16C117.45 34.06 117.15 34 116.83 34C116.51 34 116.2 34.06 115.92 34.16C115.81 34.45 115.75 34.75 115.75 35.07L115.75 35.08C115.75 35.4 115.81 35.71 115.92 35.99C116.2 36.09 116.51 36.15 116.83 36.15C117.15 36.15 117.45 36.09 117.74 35.99ZM124.13 49.43C124.17 50.87 124.54 51.94 125.25 52.61C125.97 53.28 127.03 53.61 128.42 53.61C129.64 53.61 130.81 53.4 131.91 52.97C132.05 53.23 132.17 53.54 132.25 53.91C132.34 54.28 132.38 54.65 132.4 55.01C131.84 55.25 131.21 55.44 130.53 55.56C129.85 55.68 129.09 55.74 128.26 55.74C127.06 55.74 126.02 55.57 125.16 55.23C124.29 54.9 123.58 54.42 123.03 53.81C122.47 53.2 122.06 52.47 121.8 51.63C121.54 50.8 121.41 49.88 121.41 48.88C121.41 47.89 121.54 46.98 121.78 46.12C122.03 45.26 122.41 44.53 122.93 43.89C123.44 43.27 124.1 42.76 124.88 42.4C125.66 42.02 126.59 41.84 127.66 41.84C128.58 41.84 129.37 41.99 130.07 42.31C130.76 42.62 131.33 43.04 131.8 43.59C132.26 44.13 132.62 44.78 132.86 45.52C133.1 46.28 133.22 47.09 133.22 47.97C133.22 48.21 133.22 48.47 133.19 48.73C133.18 49 133.16 49.23 133.14 49.41L124.13 49.41L124.13 49.43ZM95.78 46.69C95.78 45.67 95.52 44.97 95.01 44.56C94.49 44.17 93.74 43.97 92.76 43.97C92.15 43.97 91.59 44.01 91.07 44.11C90.54 44.21 90.03 44.32 89.52 44.48C89.2 43.91 89.03 43.23 89.03 42.44C89.62 42.25 90.26 42.1 90.97 42C91.68 41.9 92.36 41.84 93.01 41.84C94.73 41.84 96.04 42.24 96.94 43.02C97.84 43.8 98.29 45.06 98.29 46.78L98.29 55.08C97.69 55.22 96.96 55.36 96.09 55.51C95.23 55.66 94.35 55.72 93.46 55.72C92.62 55.72 91.85 55.65 91.17 55.49C90.49 55.33 89.91 55.09 89.44 54.74C88.96 54.4 88.59 53.96 88.33 53.42C88.07 52.88 87.95 52.24 87.95 51.48C87.95 50.75 88.09 50.09 88.4 49.53C88.7 48.97 89.11 48.5 89.63 48.14Q90.4 47.58 91.42 47.31C92.09 47.13 92.79 47.04 93.54 47.04C94.09 47.04 94.55 47.05 94.9 47.07C95.25 47.1 95.54 47.13 95.79 47.16L95.79 46.69L95.78 46.69ZM101.09 42.16C101.26 42.13 101.44 42.1 101.62 42.09Q101.88 42.07 102.17 42.07C102.35 42.07 102.52 42.08 102.72 42.09C102.9 42.1 103.09 42.13 103.26 42.16C103.28 42.2 103.3 42.31 103.33 42.48C103.35 42.66 103.38 42.86 103.4 43.07C103.43 43.27 103.46 43.47 103.48 43.66C103.5 43.86 103.52 43.97 103.52 44.03C103.69 43.75 103.89 43.48 104.13 43.22C104.37 42.96 104.66 42.73 105 42.52C105.33 42.31 105.71 42.15 106.14 42.03C106.56 41.91 107.03 41.85 107.55 41.85C108.32 41.85 109.04 41.98 109.71 42.24C110.37 42.5 110.93 42.89 111.41 43.44C111.89 43.98 112.25 44.67 112.52 45.51C112.79 46.34 112.92 47.33 112.92 48.47C112.92 50.75 112.31 52.53 111.08 53.82C109.84 55.1 108.1 55.74 105.84 55.74C105.46 55.74 105.07 55.72 104.68 55.67C104.28 55.62 103.93 55.55 103.64 55.46L103.64 61.54C103.43 61.58 103.22 61.6 102.98 61.62C102.75 61.63 102.53 61.64 102.35 61.64C102.16 61.64 101.94 61.63 101.71 61.62C101.48 61.6 101.27 61.57 101.08 61.54L101.08 42.16L101.09 42.16ZM136.06 42.16C136.24 42.13 136.43 42.1 136.6 42.09C136.77 42.07 136.95 42.07 137.14 42.07C137.33 42.07 137.52 42.07 137.71 42.09C137.89 42.1 138.07 42.13 138.22 42.16C138.27 42.42 138.33 42.76 138.38 43.18C138.43 43.61 138.45 43.97 138.45 44.26C138.82 43.67 139.3 43.16 139.89 42.73C140.49 42.3 141.25 42.08 142.18 42.08C142.32 42.08 142.46 42.09 142.6 42.1C142.75 42.1 142.87 42.12 142.98 42.13C143.01 42.29 143.03 42.45 143.05 42.63C143.06 42.8 143.07 42.98 143.07 43.17C143.07 43.38 143.06 43.59 143.03 43.82C143.01 44.04 142.98 44.26 142.95 44.47C142.8 44.43 142.66 44.41 142.52 44.41L142.17 44.41C141.71 44.41 141.26 44.48 140.84 44.61C140.41 44.73 140.03 44.96 139.7 45.29C139.36 45.62 139.09 46.07 138.89 46.64C138.69 47.21 138.6 47.94 138.6 48.84L138.6 55.43C138.41 55.47 138.19 55.49 137.96 55.51C137.73 55.52 137.52 55.53 137.33 55.53C137.14 55.53 136.93 55.52 136.7 55.51C136.46 55.49 136.24 55.46 136.03 55.43L136.03 42.16L136.06 42.16ZM75.64 55.07L82.62 44.21L76.47 44.21C76.41 43.89 76.39 43.55 76.39 43.17C76.39 42.8 76.41 42.47 76.47 42.16L86.43 42.16L86.55 42.5L79.52 53.38L86.11 53.38C86.16 53.73 86.19 54.08 86.19 54.44C86.19 54.78 86.16 55.11 86.11 55.42L75.77 55.42L75.64 55.07ZM116.11 44.18L114.43 44.18C114.39 44.03 114.37 43.88 114.35 43.7C114.34 43.52 114.33 43.34 114.33 43.17C114.33 43 114.34 42.82 114.35 42.64C114.37 42.46 114.4 42.3 114.43 42.16L118.62 42.16L118.62 55.43C118.44 55.47 118.22 55.49 117.99 55.51C117.76 55.52 117.54 55.53 117.36 55.53C117.18 55.53 116.98 55.52 116.75 55.51C116.52 55.49 116.3 55.46 116.11 55.43L116.11 44.18ZM130.7 47.51C130.7 47.03 130.63 46.57 130.5 46.13C130.38 45.69 130.18 45.31 129.94 44.98C129.69 44.65 129.37 44.39 128.98 44.19C128.6 43.99 128.14 43.89 127.6 43.89C126.55 43.89 125.74 44.21 125.18 44.85C124.62 45.49 124.28 46.37 124.16 47.51L130.7 47.51ZM103.65 53.26C103.98 53.38 104.31 53.47 104.65 53.52C105 53.57 105.44 53.59 106 53.59C106.62 53.59 107.2 53.5 107.71 53.29C108.22 53.09 108.67 52.79 109.04 52.38C109.42 51.96 109.71 51.44 109.92 50.81C110.14 50.19 110.24 49.44 110.24 48.58Q110.24 46.51 109.48 45.29C108.98 44.48 108.14 44.08 106.99 44.08C106.56 44.08 106.14 44.15 105.74 44.31C105.35 44.47 104.99 44.7 104.68 45.01C104.37 45.32 104.13 45.71 103.93 46.19C103.74 46.66 103.65 47.22 103.65 47.88L103.65 53.26ZM95.78 49.2C95.52 49.16 95.19 49.13 94.8 49.09C94.4 49.05 94.07 49.04 93.79 49.04C92.72 49.04 91.91 49.24 91.35 49.64C90.79 50.03 90.51 50.63 90.51 51.45C90.51 51.96 90.6 52.37 90.79 52.66C90.98 52.95 91.22 53.17 91.5 53.33C91.78 53.49 92.09 53.58 92.45 53.61C92.79 53.65 93.12 53.67 93.43 53.67C93.82 53.67 94.23 53.64 94.66 53.6C95.08 53.55 95.45 53.49 95.78 53.41L95.78 49.2Z" fill="#4C4C4D" fill-opacity="1.000000" fill-rule="evenodd"/>
		</g>
	</g>
</svg>
